# Blender v2.93.4 OBJ File: 'room.blend'
# www.blender.org
o Cube_Cube.001
v -2.000000 0.000000 2.000000
v -2.000000 3.000000 2.000000
v -2.000000 0.000000 -2.000000
v -2.000000 3.000000 -2.000000
v 2.000000 0.000000 2.000000
v 2.000000 3.000000 2.000000
v 2.000000 0.000000 -2.000000
v 2.000000 3.000000 -2.000000
vt -0.498440 -1.552971
vt 1.534173 2.617712
vt 1.534173 -1.552971
vt -0.498440 -1.552971
vt 1.534173 2.617712
vt 1.534173 -1.552971
vt -0.498440 -1.552971
vt 1.534173 2.617712
vt 1.534173 -1.552971
vt -0.498440 -1.552971
vt 1.534173 2.617712
vt 1.534173 -1.552971
vt -0.892104 1.860144
vt 1.858190 -0.890149
vt -0.892104 -0.890149
vt -0.498440 -1.552971
vt 1.534173 -1.552971
vt -0.498440 2.617712
vt -0.498440 2.617712
vt -0.498440 2.617712
vt -0.498440 2.617712
vt 1.858190 1.860144
vn 1.0000 0.0000 0.0000
vn 0.0000 0.0000 1.0000
vn -1.0000 0.0000 0.0000
vn 0.0000 0.0000 -1.0000
vn 0.0000 1.0000 0.0000
vn 0.0000 -1.0000 0.0000
s off
f 3/1/1 2/2/1 1/3/1
f 7/4/2 4/5/2 3/6/2
f 5/7/3 8/8/3 7/9/3
f 1/10/4 6/11/4 5/12/4
f 1/13/5 7/14/5 3/15/5
f 6/16/6 4/5/6 8/17/6
f 3/1/1 4/18/1 2/2/1
f 7/4/2 8/19/2 4/5/2
f 5/7/3 6/20/3 8/8/3
f 1/10/4 2/21/4 6/11/4
f 1/13/5 5/22/5 7/14/5
f 6/16/6 2/21/6 4/5/6
