# Blender v2.93.4 OBJ File: 'billardTable.blend'
# www.blender.org
o Plane.002
v 0.477269 0.790000 1.125690
v 0.566148 0.790000 -0.065662
v 0.537645 0.789999 1.180377
v 0.578555 0.789999 0.061697
v 0.000000 0.820000 1.120000
v 0.000000 0.820000 -1.120000
v 0.000000 0.790000 1.125690
v 0.000000 0.790000 -1.125690
v 0.620377 0.789999 1.097645
v 0.000000 0.820000 -1.180000
v 0.000000 0.820000 1.180000
v 0.566148 0.790000 0.065662
v 0.620000 0.820000 -0.042670
v 0.477269 0.790000 -1.125690
v 0.578555 0.820000 0.061697
v 0.611693 0.820000 -0.048608
v 0.537268 0.820000 1.180000
v 0.560000 0.820000 0.065662
v 0.477269 0.820000 1.120000
v 0.600042 0.820000 -0.054032
v 0.566148 0.790000 1.037269
v 0.566148 0.790000 -1.037269
v 0.578555 0.820000 -0.061697
v 0.560000 0.820000 -0.065662
v 0.560000 0.820000 1.037269
v 0.587400 0.820209 -0.059027
v 0.620000 0.820000 1.097269
v 0.620000 0.820000 -1.097269
v 0.560000 0.820000 -1.037269
v 0.477269 0.820000 -1.120000
v 0.620000 0.820000 0.042670
v 0.537268 0.820000 -1.180000
v 0.611693 0.820000 0.048608
v 0.600042 0.820000 0.054032
v 0.587400 0.820209 0.059027
v 0.620000 0.790000 -1.097269
v 0.537268 0.790000 -1.180000
v 0.577033 0.790000 -1.094636
v 0.587546 0.790000 -1.093601
v 0.599598 0.790000 -1.093097
v 0.549441 0.790000 1.109384
v 0.557607 0.790000 1.102683
v 0.611320 0.789999 1.094552
v 0.599467 0.789999 1.093229
v 0.587546 0.789999 1.093601
v 0.577033 0.789999 1.094636
v 0.566924 0.789999 1.097703
v 0.611088 0.790000 -1.094784
v 0.533657 0.790000 -1.147490
v 0.534692 0.790000 -1.136977
v 0.533657 0.789999 1.147490
v 0.533286 0.789999 1.159410
v 0.534692 0.789999 1.136977
v 0.534608 0.789999 1.171264
v 0.542739 0.789999 1.117551
v 0.537759 0.789999 1.126867
v 0.537759 0.790000 -1.126867
v 0.534841 0.790000 -1.171031
v 0.542739 0.790000 -1.117551
v 0.533154 0.790000 -1.159542
v 0.549441 0.790000 -1.109384
v 0.557607 0.790000 -1.102683
v 0.566924 0.790000 -1.097703
v 0.578555 0.789999 -0.061697
v 0.574071 0.790000 0.049246
v 0.570740 0.790000 0.032831
v 0.568442 0.790000 0.016415
v 0.566490 0.790000 -0.000000
v 0.568442 0.790000 -0.016415
v 0.570740 0.790000 -0.032831
v 0.574071 0.790000 -0.049246
v -0.477269 0.790000 1.125690
v -0.566148 0.790000 -0.065662
v -0.537645 0.789999 1.180377
v -0.578555 0.789999 0.061697
v -0.620377 0.789999 1.097645
v -0.566148 0.790000 0.065662
v -0.620000 0.820000 -0.042670
v -0.477269 0.790000 -1.125690
v -0.578555 0.820000 0.061697
v -0.611693 0.820000 -0.048608
v -0.537268 0.820000 1.180000
v -0.560000 0.820000 0.065662
v -0.477269 0.820000 1.120000
v -0.600042 0.820000 -0.054032
v -0.566148 0.790000 1.037269
v -0.566148 0.790000 -1.037269
v -0.578555 0.820000 -0.061697
v -0.560000 0.820000 -0.065662
v -0.560000 0.820000 1.037269
v -0.587400 0.820209 -0.059027
v -0.620000 0.820000 1.097269
v -0.620000 0.820000 -1.097269
v -0.560000 0.820000 -1.037269
v -0.477269 0.820000 -1.120000
v -0.620000 0.820000 0.042670
v -0.537268 0.820000 -1.180000
v -0.611693 0.820000 0.048608
v -0.600042 0.820000 0.054032
v -0.587400 0.820209 0.059027
v -0.620000 0.790000 -1.097269
v -0.537268 0.790000 -1.180000
v -0.577033 0.790000 -1.094636
v -0.587546 0.790000 -1.093601
v -0.599598 0.790000 -1.093097
v -0.549441 0.790000 1.109384
v -0.557607 0.790000 1.102683
v -0.611320 0.789999 1.094552
v -0.599467 0.789999 1.093229
v -0.587546 0.789999 1.093601
v -0.577033 0.789999 1.094636
v -0.566924 0.789999 1.097703
v -0.611088 0.790000 -1.094784
v -0.533657 0.790000 -1.147490
v -0.534692 0.790000 -1.136977
v -0.533657 0.789999 1.147490
v -0.533286 0.789999 1.159410
v -0.534692 0.789999 1.136977
v -0.534608 0.789999 1.171264
v -0.542739 0.789999 1.117551
v -0.537759 0.789999 1.126867
v -0.537759 0.790000 -1.126867
v -0.534841 0.790000 -1.171031
v -0.542739 0.790000 -1.117551
v -0.533154 0.790000 -1.159542
v -0.549441 0.790000 -1.109384
v -0.557607 0.790000 -1.102683
v -0.566924 0.790000 -1.097703
v -0.578555 0.789999 -0.061697
v -0.574071 0.790000 0.049246
v -0.570740 0.790000 0.032831
v -0.568442 0.790000 0.016415
v -0.566490 0.790000 -0.000000
v -0.568442 0.790000 -0.016415
v -0.570740 0.790000 -0.032831
v -0.574071 0.790000 -0.049246
vt 0.836281 0.359863
vt 0.816304 0.677691
vt 0.816304 0.359863
vt 0.792164 0.359863
vt 0.812142 0.677691
vt 0.792164 0.717646
vt 0.373116 0.792222
vt 0.049605 0.792222
vt 0.020164 0.733035
vt 0.930546 0.360114
vt 0.943550 0.677941
vt 0.930546 0.677941
vt 0.980245 0.653264
vt 0.966732 0.329753
vt 0.980245 0.329753
vt 0.980245 0.002081
vt 0.966732 0.325591
vt 0.966732 0.002081
vt 0.962571 0.359863
vt 0.949567 0.042036
vt 0.962571 0.042036
vt 0.884560 0.688552
vt 0.902807 0.362832
vt 0.911226 0.361169
vt 0.884560 0.022059
vt 0.911226 0.349442
vt 0.902807 0.347779
vt 0.941501 0.717897
vt 0.809328 0.758384
vt 0.822331 0.721808
vt 0.822331 0.761816
vt 0.822331 0.805986
vt 0.809328 0.769410
vt 0.822331 0.765977
vt 0.960521 0.002081
vt 0.947712 0.002081
vt 0.764365 0.781096
vt 0.740353 0.792222
vt 0.767084 0.776634
vt 0.025593 0.781096
vt 0.022874 0.776633
vt 0.416842 0.792222
vt 0.394979 0.792450
vt 0.378582 0.797498
vt 0.374436 0.800484
vt 0.415522 0.800484
vt 0.411376 0.797498
vt 0.816304 0.042036
vt 0.812142 0.042036
vt 0.792164 0.002081
vt 0.769794 0.097381
vt 0.769794 0.415208
vt 0.416842 0.038194
vt 0.943550 0.042287
vt 0.930546 0.042287
vt 0.966732 0.980936
vt 0.980245 0.657425
vt 0.980245 0.980936
vt 0.984407 0.002081
vt 0.997919 0.325591
vt 0.984407 0.325591
vt 0.949567 0.677690
vt 0.962571 0.677690
vt 0.858689 0.347779
vt 0.840443 0.022059
vt 0.867108 0.349442
vt 0.840443 0.688552
vt 0.858689 0.362832
vt 0.867108 0.361169
vt 0.941501 0.002332
vt 0.792164 0.769410
vt 0.805167 0.805986
vt 0.792374 0.805581
vt 0.792164 0.758384
vt 0.805167 0.721808
vt 0.805167 0.761816
vt 0.960521 0.717646
vt 0.764365 0.049319
vt 0.767084 0.053782
vt 0.740353 0.038194
vt 0.025593 0.049319
vt 0.049605 0.038193
vt 0.022874 0.053782
vt 0.373116 0.038194
vt 0.394979 0.037966
vt 0.378582 0.032917
vt 0.374436 0.029931
vt 0.411376 0.032917
vt 0.415522 0.029931
vt 0.836281 0.717646
vt 0.812142 0.359863
vt 0.020164 0.415208
vt 0.769794 0.733035
vt 0.943550 0.360114
vt 0.966732 0.653264
vt 0.980245 0.325591
vt 0.949567 0.359863
vt 0.924516 0.708530
vt 0.924516 0.357386
vt 0.884560 0.365042
vt 0.896917 0.363722
vt 0.918985 0.359363
vt 0.896917 0.346889
vt 0.884560 0.345569
vt 0.924516 0.002081
vt 0.924516 0.353225
vt 0.918985 0.351248
vt 0.928678 0.718148
vt 0.809538 0.722213
vt 0.809538 0.805330
vt 0.759426 0.822304
vt 0.760456 0.828335
vt 0.788003 0.773241
vt 0.784968 0.771219
vt 0.781021 0.770338
vt 0.758986 0.814410
vt 0.759109 0.806472
vt 0.777052 0.770585
vt 0.773552 0.771275
vt 0.759454 0.799471
vt 0.760475 0.792739
vt 0.770186 0.773317
vt 0.762133 0.786535
vt 0.029627 0.828084
vt 0.030455 0.822149
vt 0.031016 0.814498
vt 0.005067 0.771374
vt 0.002081 0.772990
vt 0.008893 0.770250
vt 0.030849 0.806472
vt 0.030504 0.799471
vt 0.012905 0.770585
vt 0.016406 0.771275
vt 0.029483 0.792739
vt 0.027825 0.786534
vt 0.019772 0.773317
vt 0.405910 0.795280
vt 0.400445 0.793750
vt 0.384047 0.795280
vt 0.389513 0.793750
vt 0.836282 0.002081
vt 0.020164 0.097381
vt 0.966732 0.657425
vt 0.997919 0.002081
vt 0.840443 0.345569
vt 0.852799 0.346889
vt 0.880399 0.002081
vt 0.880399 0.353225
vt 0.874867 0.351248
vt 0.874867 0.359363
vt 0.880399 0.357386
vt 0.880399 0.708530
vt 0.840443 0.365042
vt 0.852799 0.363722
vt 0.928678 0.002081
vt 0.805167 0.765977
vt 0.792374 0.722464
vt 0.947712 0.717646
vt 0.760456 0.002081
vt 0.759426 0.008112
vt 0.758986 0.016005
vt 0.784968 0.059197
vt 0.788003 0.057174
vt 0.781021 0.060077
vt 0.759109 0.023943
vt 0.759454 0.030944
vt 0.777053 0.059830
vt 0.773552 0.059140
vt 0.760475 0.037677
vt 0.762133 0.043881
vt 0.770186 0.057098
vt 0.030455 0.008267
vt 0.029627 0.002332
vt 0.002081 0.057425
vt 0.005067 0.059042
vt 0.008893 0.060165
vt 0.031016 0.015918
vt 0.030849 0.023943
vt 0.012905 0.059830
vt 0.016406 0.059140
vt 0.030504 0.030944
vt 0.029483 0.037677
vt 0.019772 0.057098
vt 0.027825 0.043881
vt 0.384048 0.035135
vt 0.389513 0.036665
vt 0.405910 0.035135
vt 0.400445 0.036665
vn 0.0000 1.0000 0.0000
vn 0.0000 -0.1863 -0.9825
vn -0.9796 -0.2007 0.0000
vn 0.0000 -0.1863 0.9825
vn 0.0168 0.9999 -0.0007
vn 0.0168 0.9999 0.0007
vn 0.7008 -0.1329 -0.7008
vn -0.6998 -0.1434 0.6998
vn -0.6998 -0.1434 -0.6998
vn 0.6711 0.0000 0.7414
vn 0.0001 1.0000 -0.0000
vn 0.9796 -0.2007 0.0000
vn -0.0168 0.9999 -0.0007
vn -0.0168 0.9999 0.0007
vn -0.7008 -0.1329 -0.7008
vn 0.7440 -0.0010 0.6682
vn 0.6998 -0.1434 -0.6998
vn -0.7008 -0.1329 0.7008
vn -0.0001 1.0000 -0.0000
vn -0.0237 0.9997 0.0005
vn -0.0237 0.9997 -0.0005
vn 0.6713 -0.0009 -0.7412
vn -0.7440 -0.0010 0.6682
vn -0.7442 0.0000 -0.6680
vn 0.7008 -0.1329 0.7008
vn 0.0237 0.9997 0.0005
vn 0.0237 0.9997 -0.0005
vn -0.6713 -0.0009 -0.7412
vn 0.6998 -0.1434 0.6998
vn 0.7442 0.0000 -0.6680
vn -0.6711 0.0000 0.7414
s off
f 11/1/1 19/2/1 5/3/1
f 10/4/1 30/5/1 32/6/1
f 2/7/1 22/8/1 14/9/1
f 7/10/2 19/11/2 1/12/2
f 2/13/3 29/14/3 22/15/3
f 12/16/3 25/17/3 18/18/3
f 6/19/4 14/20/4 30/21/4
f 29/22/5 26/23/5 20/24/5
f 25/25/6 34/26/6 35/27/6
f 17/28/7 1/12/7 19/11/7
f 21/29/8 27/30/8 25/31/8
f 28/32/9 22/33/9 29/34/9
f 32/35/10 14/20/10 37/36/10
f 41/37/1 21/38/1 55/39/1
f 61/40/1 59/41/1 22/8/1
f 12/42/1 68/43/1 2/7/1
f 71/44/11 64/45/11 2/7/11
f 12/42/11 4/46/11 65/47/11
f 84/48/1 11/1/1 5/3/1
f 95/49/1 10/4/1 97/50/1
f 72/51/1 7/52/1 77/53/1
f 84/54/2 7/10/2 72/55/2
f 94/56/12 73/57/12 87/58/12
f 90/59/12 77/60/12 83/61/12
f 79/62/4 6/19/4 95/63/4
f 91/64/13 94/65/13 85/66/13
f 90/67/14 100/68/14 99/69/14
f 72/55/15 82/70/15 84/54/15
f 86/71/16 92/72/16 76/73/16
f 87/74/17 93/75/17 94/76/17
f 97/77/18 79/62/18 95/63/18
f 106/78/1 120/79/1 86/80/1
f 126/81/1 87/82/1 124/83/1
f 77/53/1 73/84/1 133/85/1
f 136/86/19 73/84/19 129/87/19
f 77/53/19 130/88/19 75/89/19
f 11/1/1 17/90/1 19/2/1
f 10/4/1 6/91/1 30/5/1
f 14/9/1 8/92/1 2/7/1
f 8/92/1 7/52/1 2/7/1
f 7/52/1 1/93/1 12/42/1
f 1/93/1 21/38/1 12/42/1
f 12/42/1 2/7/1 7/52/1
f 7/10/2 5/94/2 19/11/2
f 2/13/3 24/95/3 29/14/3
f 12/16/3 21/96/3 25/17/3
f 6/19/4 8/97/4 14/20/4
f 28/98/1 29/22/1 13/99/1
f 29/22/1 24/100/1 23/101/1
f 29/22/20 23/101/20 26/23/20
f 16/102/1 13/99/1 29/22/1
f 20/24/1 16/102/1 29/22/1
f 15/103/1 18/104/1 25/25/1
f 25/25/1 27/105/1 31/106/1
f 25/25/1 31/106/1 33/107/1
f 35/27/21 15/103/21 25/25/21
f 25/25/1 33/107/1 34/26/1
f 17/28/22 3/108/22 1/12/22
f 21/29/23 9/109/23 27/30/23
f 28/32/24 36/110/24 22/33/24
f 32/35/25 30/21/25 14/20/25
f 43/111/1 9/112/1 21/38/1
f 1/93/1 3/113/1 54/114/1
f 1/93/1 54/114/1 52/115/1
f 44/116/1 43/111/1 21/38/1
f 45/117/1 44/116/1 21/38/1
f 1/93/1 52/115/1 51/118/1
f 1/93/1 51/118/1 53/119/1
f 46/120/1 45/117/1 21/38/1
f 47/121/1 46/120/1 21/38/1
f 1/93/1 53/119/1 56/122/1
f 1/93/1 56/122/1 55/39/1
f 47/121/1 21/38/1 42/123/1
f 21/38/1 1/93/1 55/39/1
f 42/123/1 21/38/1 41/37/1
f 22/8/1 36/124/1 48/125/1
f 22/8/1 48/125/1 40/126/1
f 58/127/1 37/128/1 14/9/1
f 60/129/1 58/127/1 14/9/1
f 22/8/1 40/126/1 39/130/1
f 22/8/1 39/130/1 38/131/1
f 49/132/1 60/129/1 14/9/1
f 50/133/1 49/132/1 14/9/1
f 22/8/1 38/131/1 63/134/1
f 22/8/1 63/134/1 62/135/1
f 57/136/1 50/133/1 14/9/1
f 59/41/1 57/136/1 14/9/1
f 14/9/1 22/8/1 59/41/1
f 22/8/1 62/135/1 61/40/1
f 12/42/1 65/47/1 66/137/1
f 12/42/1 66/137/1 67/138/1
f 70/139/1 71/44/1 2/7/1
f 69/140/1 70/139/1 2/7/1
f 12/42/1 67/138/1 68/43/1
f 68/43/1 69/140/1 2/7/1
f 84/48/1 82/141/1 11/1/1
f 95/49/1 6/91/1 10/4/1
f 7/52/1 8/92/1 77/53/1
f 8/92/1 79/142/1 73/84/1
f 77/53/1 8/92/1 73/84/1
f 79/142/1 87/82/1 73/84/1
f 77/53/1 86/80/1 72/51/1
f 84/54/2 5/94/2 7/10/2
f 94/56/12 89/143/12 73/57/12
f 90/59/12 86/144/12 77/60/12
f 79/62/4 8/97/4 6/19/4
f 89/145/1 94/65/1 88/146/1
f 94/65/1 93/147/1 78/148/1
f 88/146/26 94/65/26 91/64/26
f 78/148/1 81/149/1 94/65/1
f 81/149/1 85/66/1 94/65/1
f 98/150/1 96/151/1 90/67/1
f 96/151/1 92/152/1 90/67/1
f 90/67/1 83/153/1 80/154/1
f 90/67/27 80/154/27 100/68/27
f 99/69/1 98/150/1 90/67/1
f 72/55/28 74/155/28 82/70/28
f 86/71/29 90/156/29 92/72/29
f 87/74/30 101/157/30 93/75/30
f 97/77/31 102/158/31 79/62/31
f 86/80/1 76/159/1 108/160/1
f 86/80/1 108/160/1 109/161/1
f 119/162/1 74/163/1 72/51/1
f 117/164/1 119/162/1 72/51/1
f 86/80/1 109/161/1 110/165/1
f 86/80/1 110/165/1 111/166/1
f 116/167/1 117/164/1 72/51/1
f 118/168/1 116/167/1 72/51/1
f 86/80/1 111/166/1 112/169/1
f 86/80/1 112/169/1 107/170/1
f 121/171/1 118/168/1 72/51/1
f 120/79/1 121/171/1 72/51/1
f 72/51/1 86/80/1 120/79/1
f 86/80/1 107/170/1 106/78/1
f 113/172/1 101/173/1 87/82/1
f 79/142/1 102/174/1 123/175/1
f 79/142/1 123/175/1 125/176/1
f 105/177/1 113/172/1 87/82/1
f 104/178/1 105/177/1 87/82/1
f 79/142/1 125/176/1 114/179/1
f 79/142/1 114/179/1 115/180/1
f 103/181/1 104/178/1 87/82/1
f 128/182/1 103/181/1 87/82/1
f 79/142/1 115/180/1 122/183/1
f 79/142/1 122/183/1 124/83/1
f 128/182/1 87/82/1 127/184/1
f 87/82/1 79/142/1 124/83/1
f 127/184/1 87/82/1 126/81/1
f 73/84/1 136/86/1 135/185/1
f 73/84/1 135/185/1 134/186/1
f 131/187/1 130/88/1 77/53/1
f 132/188/1 131/187/1 77/53/1
f 73/84/1 134/186/1 133/85/1
f 133/85/1 132/188/1 77/53/1
